<?xml version="1.0" standalone="no"?>
<!DOCTYPE svg PUBLIC "-//W3C//DTD SVG 20010904//EN"
 "http://www.w3.org/TR/2001/REC-SVG-20010904/DTD/svg10.dtd">
<svg version="1.0" xmlns="http://www.w3.org/2000/svg"
 width="16.000000pt" height="16.000000pt" viewBox="0 0 16.000000 16.000000"
 preserveAspectRatio="xMidYMid meet">
<metadata>
Created by potrace 1.11, written by Peter Selinger 2001-2013
</metadata>
<g transform="translate(0.000000,16.000000) scale(0.000355,-0.000355)"
fill="#000000" stroke="none">
<path d="M21965 44460 c-3652 -87 -7155 -1053 -10310 -2843 -1455 -826 -2807
-1815 -4070 -2977 -270 -249 -966 -945 -1215 -1215 -1660 -1804 -2975 -3803
-3955 -6010 -1060 -2389 -1684 -4976 -1835 -7610 -47 -821 -45 -1783 5 -2605
263 -4308 1765 -8386 4360 -11835 1898 -2524 4332 -4619 7117 -6126 284 -153
965 -494 1258 -628 2471 -1134 5112 -1793 7845 -1956 779 -46 1721 -48 2525
-5 3370 182 6683 1156 9615 2828 2043 1165 3882 2646 5460 4397 1741 1932
3134 4174 4090 6584 812 2048 1307 4199 1475 6406 70 930 80 2071 25 2985
-155 2561 -730 4996 -1733 7337 -228 531 -536 1172 -807 1678 -1597 2983
-3864 5562 -6615 7527 -3373 2409 -7326 3801 -11465 4038 -525 30 -1254 42
-1770 30z m930 -1870 c1382 -33 2630 -183 3935 -471 1977 -438 3914 -1193
5670 -2212 2174 -1260 4091 -2914 5659 -4881 2470 -3099 3958 -6834 4291
-10766 49 -581 60 -845 67 -1515 8 -853 -15 -1409 -92 -2195 -399 -4062 -2040
-7909 -4704 -11025 -678 -793 -1443 -1558 -2236 -2236 -2760 -2359 -6114
-3928 -9670 -4523 -1220 -204 -2274 -285 -3550 -273 -670 7 -934 18 -1515 67
-4751 402 -9194 2491 -12560 5907 -1084 1099 -2020 2293 -2822 3598 -1710
2784 -2707 5930 -2913 9195 -52 829 -52 1727 0 2560 202 3210 1168 6301 2831
9062 708 1175 1545 2285 2503 3318 332 357 918 933 1301 1276 3085 2767 6937
4506 11035 4983 649 76 1393 125 2020 134 88 1 203 3 255 5 52 1 275 -3 495
-8z"/>
<path d="M22060 40633 c-3062 -65 -6061 -913 -8716 -2463 -697 -408 -1438
-912 -2074 -1415 -384 -303 -853 -706 -1121 -962 -47 -45 -85 -73 -98 -73 -12
0 -152 23 -310 50 l-288 50 -409 -20 c-225 -11 -452 -20 -504 -19 -176 1 -188
1 -220 -16 -47 -24 -118 -92 -145 -139 -29 -50 -49 -163 -40 -231 16 -118 90
-212 203 -256 78 -31 200 -33 257 -3 40 20 43 20 435 8 217 -7 406 -13 420
-13 66 -2 -31 -39 -341 -132 -216 -64 -351 -99 -382 -99 -26 0 -63 -7 -83 -15
-52 -21 -148 -122 -163 -170 -7 -22 -24 -64 -38 -93 -23 -48 -25 -61 -21 -140
8 -132 56 -226 143 -281 l43 -27 -50 -60 c-1107 -1325 -2053 -2871 -2740
-4479 -1215 -2841 -1676 -5981 -1337 -9095 292 -2690 1191 -5288 2622 -7580
938 -1503 2077 -2846 3407 -4021 1599 -1411 3476 -2550 5465 -3315 2457 -944
5105 -1340 7755 -1159 3488 239 6787 1463 9595 3560 867 648 1734 1429 2469
2227 191 208 223 238 255 244 306 52 624 171 832 310 260 174 406 356 508 634
94 259 163 623 177 940 l6 135 98 150 c2529 3895 3459 8586 2615 13180 -499
2717 -1628 5291 -3300 7530 -1032 1381 -2289 2637 -3680 3675 -1322 986 -2792
1798 -4320 2386 -2198 845 -4533 1249 -6925 1197z m1325 -482 c651 -40 1072
-81 1605 -157 4522 -642 8622 -3031 11442 -6666 1214 -1565 2158 -3330 2784
-5203 461 -1382 741 -2772 853 -4230 40 -521 46 -688 46 -1365 0 -677 -6 -844
-46 -1365 -212 -2769 -1062 -5411 -2502 -7785 -68 -112 -128 -205 -133 -207
-10 -3 -88 181 -83 196 2 5 54 52 116 105 172 148 285 286 329 400 29 77 26
178 -8 246 -40 81 -133 219 -275 407 l-127 168 -11 83 -12 83 152 154 c495
500 775 968 792 1325 6 120 -8 193 -57 299 -145 310 -571 589 -1240 811 l-206
68 -1912 1261 -1911 1260 -742 -148 -742 -149 -487 183 c-544 204 -488 190
-815 200 -93 3 -611 27 -1150 53 l-980 47 -5 670 -6 670 -32 120 c-253 934
-748 1693 -1377 2112 -262 175 -521 286 -845 363 -74 17 -139 33 -145 35 -5 1
-18 27 -29 56 -132 383 -315 822 -467 1117 -124 242 -150 283 -214 340 -87 76
-176 79 -355 11 -58 -22 -276 -103 -485 -180 -455 -168 -553 -209 -709 -294
l-118 -66 -30 19 -29 19 58 29 c40 20 67 43 88 72 28 41 30 51 33 149 4 119
-9 172 -56 215 -15 14 -184 126 -377 248 -192 123 -410 265 -483 316 -72 51
-163 112 -200 136 l-68 43 -122 350 c-120 345 -123 354 -167 600 -25 138 -47
260 -50 273 -4 17 -48 44 -208 123 -111 56 -203 102 -205 104 -1 1 -27 179
-56 396 l-54 394 43 865 c42 831 46 891 110 1524 38 376 63 662 57 665 -4 3
-180 124 -390 269 -380 261 -382 263 -589 356 l-208 94 -518 856 -517 855 -98
408 -97 408 12 300 c11 258 16 314 38 400 35 141 45 215 45 330 0 214 -79 363
-233 442 -164 83 -440 85 -612 5 -127 -60 -186 -139 -193 -261 l-4 -76 -184 3
c-224 4 -346 -11 -596 -74 -375 -94 -545 -175 -605 -287 -11 -21 -17 -55 -18
-97 0 -91 36 -162 117 -232 139 -120 155 -150 144 -270 -7 -82 -49 -219 -73
-240 -16 -13 -197 -21 -1283 -57 -696 -23 -1319 -44 -1384 -47 l-119 -7 7 59
c34 287 56 850 37 922 -13 47 -68 115 -112 138 -55 28 -309 14 -457 -26 -215
-59 -291 -147 -254 -293 13 -51 16 -131 16 -442 l1 -380 -545 -18 -545 -18
-20 24 c-11 13 -24 31 -30 39 -5 9 -201 106 -435 216 -234 111 -586 286 -783
391 -197 104 -374 193 -394 198 l-37 9 122 108 c1986 1764 4337 3055 6877
3777 1282 365 2634 587 3955 649 124 6 257 12 295 14 148 7 1329 -3 1490 -13z
m-5312 -4570 c154 -24 181 -31 202 -52 l24 -24 -37 -57 c-20 -32 -40 -58 -44
-58 -3 0 -42 24 -85 54 -43 29 -122 77 -175 106 -54 28 -98 54 -98 56 0 7 34
4 213 -25z m-298 -412 c101 -59 214 -141 220 -161 6 -16 -15 -67 -37 -95 -12
-15 -103 52 -168 123 -32 35 -100 149 -100 169 0 11 18 4 85 -36z m-7406 -536
c44 -42 75 -100 59 -109 -7 -5 -56 -10 -108 -12 -148 -6 -220 22 -220 88 0 26
5 30 43 40 23 6 47 13 52 15 6 2 40 4 77 4 61 1 71 -2 97 -26z m1549 -97 l88
-44 161 -269 c180 -301 209 -355 281 -533 113 -280 150 -485 172 -945 5 -121
13 -264 16 -317 l7 -98 -24 0 c-13 -1 -40 -6 -59 -13 l-35 -13 -3 171 c-2 93
-9 266 -16 383 -9 146 -10 226 -3 256 9 41 4 61 -91 342 -146 434 -229 617
-360 794 -66 90 -170 194 -238 240 -27 18 -51 35 -53 36 -5 4 52 53 62 54 4 0
47 -20 95 -44z m6975 -283 c21 -87 40 -167 43 -179 4 -17 -1 -22 -36 -33 -23
-7 -43 -11 -44 -9 -1 2 -17 57 -34 123 -18 66 -46 149 -62 184 -17 35 -30 65
-30 67 0 2 28 4 63 4 l63 0 37 -157z m-1303 -25 c0 -7 -7 -48 -15 -90 l-15
-78 66 -212 c36 -117 83 -269 104 -338 l39 -125 290 -144 289 -145 22 -79 c12
-43 20 -81 17 -83 -2 -2 -46 32 -97 76 -52 44 -96 80 -100 80 -9 0 -741 -227
-744 -231 -2 -2 -29 -81 -60 -175 l-57 -171 -237 -22 c-130 -12 -252 -24 -269
-27 l-33 -5 0 44 c0 36 4 46 23 54 46 21 126 105 153 159 35 71 39 134 25 402
-9 192 -13 219 -35 267 -38 84 -136 142 -307 180 -156 35 -645 29 -802 -11
-133 -33 -216 -107 -253 -227 -36 -117 -28 -378 17 -521 26 -85 89 -178 144
-213 l45 -28 -3 -60 -2 -60 -960 -182 c-528 -100 -975 -184 -992 -188 l-33 -6
0 131 0 132 166 516 166 517 7 362 c4 200 10 366 14 369 5 6 1175 55 3395 143
20 1 32 -4 32 -11z m839 -213 c7 -31 11 -58 9 -60 -2 -2 -15 -6 -31 -10 -24
-6 -29 -3 -41 26 -29 71 -28 74 6 91 18 9 36 14 39 12 3 -2 11 -28 18 -59z
m-5006 13 c-2 -24 -17 -230 -33 -458 l-29 -415 -66 -185 c-37 -102 -68 -186
-70 -188 -2 -2 -22 2 -45 8 -36 10 -41 14 -36 33 3 12 15 69 27 127 l22 105
-177 420 c-97 231 -196 454 -220 495 l-44 75 42 3 c87 6 426 19 527 20 l107 2
-5 -42z m-3605 -220 c16 -46 60 -169 98 -275 l68 -191 33 13 c29 12 33 12 37
-3 15 -46 1886 -7267 1886 -7276 0 -16 -133 -99 -230 -144 -89 -41 -131 -78
-157 -139 -15 -38 -17 -101 -3 -138 5 -14 75 -130 154 -258 276 -447 314 -516
341 -630 27 -118 91 -665 79 -676 -5 -4 -62 -45 -128 -91 -133 -94 -206 -161
-239 -223 -18 -34 -22 -58 -22 -132 0 -78 4 -97 27 -145 41 -83 82 -126 154
-161 l65 -32 157 6 c86 3 166 9 177 13 19 6 19 5 -2 -16 -12 -13 -88 -73 -170
-134 -175 -131 -187 -149 -198 -286 -6 -80 -5 -94 15 -135 12 -25 38 -58 57
-74 30 -25 33 -30 17 -34 -11 -3 -257 -42 -549 -87 l-530 -82 -351 -210 -352
-209 -230 -347 -231 -347 -135 -452 -136 -452 0 -967 0 -966 45 -452 45 -451
151 -545 152 -545 268 -425 268 -425 291 -270 c159 -148 290 -270 291 -270 0
0 18 -166 39 -369 l37 -369 -38 -326 c-47 -391 -129 -1309 -129 -1438 0 -709
499 -1515 1415 -2282 175 -146 418 -329 596 -447 l125 -84 1942 0 c1547 0
1942 -3 1942 -12 0 -7 -12 -143 -25 -303 -57 -653 -38 -1081 60 -1380 40 -121
177 -419 242 -528 88 -144 205 -291 347 -433 155 -155 250 -224 412 -300 129
-61 390 -146 549 -180 118 -26 149 -28 325 -28 221 0 351 18 595 81 283 72
522 174 689 294 110 79 289 248 356 338 164 217 226 482 252 1060 13 295 8
394 -32 626 -33 193 -135 679 -156 748 -5 16 110 17 2318 17 l2323 0 307 -613
c172 -344 334 -654 369 -707 115 -173 245 -282 399 -334 191 -63 497 -62 870
5 433 77 1415 324 2089 525 319 95 1259 406 1391 461 187 77 331 187 398 305
18 31 45 101 59 155 25 92 27 111 27 323 0 207 -2 235 -27 351 -69 324 -147
477 -478 942 -51 70 -90 129 -88 132 5 5 2971 1705 2974 1705 2 0 6 -30 10
-67 43 -479 143 -870 305 -1198 323 -656 904 -1201 1419 -1331 52 -13 96 -26
99 -28 5 -6 -353 -373 -573 -587 -1662 -1612 -3601 -2871 -5745 -3729 -1647
-659 -3386 -1062 -5175 -1199 -521 -40 -688 -46 -1365 -46 -677 0 -844 6
-1365 46 -4003 307 -7742 1954 -10685 4704 -2342 2188 -4048 4979 -4921 8050
-363 1276 -563 2487 -650 3930 -17 283 -23 1208 -10 1540 124 3212 1059 6205
2778 8889 295 461 757 1106 1046 1460 l24 29 44 -30 c71 -48 126 -65 209 -66
84 0 150 22 195 67 23 23 620 375 637 376 3 0 20 -37 36 -82z m1710 -115 c-3
-37 -3 -37 -16 -15 -11 19 -11 32 0 75 l13 52 3 -37 c2 -21 2 -55 0 -75z
m-630 60 c22 -16 50 -40 62 -56 26 -33 168 -327 234 -484 26 -62 65 -138 85
-170 96 -147 145 -163 556 -183 121 -6 220 -12 221 -13 1 -1 -6 -204 -17 -452
-10 -247 -19 -461 -19 -475 0 -21 9 -29 63 -51 l62 -25 3 -1040 c3 -899 1
-1080 -14 -1346 -15 -263 -16 -331 -6 -476 43 -593 186 -1046 493 -1568 l54
-92 -11 -561 c-5 -308 -14 -564 -18 -568 -4 -4 -70 -24 -147 -45 -99 -26 -141
-33 -144 -25 -19 54 -1915 7384 -1913 7396 2 8 65 40 149 75 l146 60 44 63
c24 34 51 62 60 63 9 0 34 -12 57 -27z m940 -379 l72 -7 0 -35 0 -35 -87 7
c-48 3 -88 7 -89 9 -1 1 -5 20 -9 41 -7 37 -7 39 16 33 13 -3 57 -9 97 -13z
m1300 -998 c1 -2 -3 -26 -10 -55 -8 -37 -16 -51 -28 -51 -21 0 -32 46 -23 91
5 27 9 30 32 24 14 -4 27 -8 29 -9z m-530 -731 c5 -4 82 -3369 77 -3373 -5 -5
-50 143 -74 248 -48 204 -55 272 -54 570 0 157 1 800 1 1428 l0 1144 24 -7
c12 -4 24 -9 26 -10z m612 -391 c7 -20 10 -37 8 -39 -2 -2 -21 0 -43 5 -22 5
-66 10 -97 10 l-58 0 0 53 0 52 83 35 82 36 7 -59 c4 -32 12 -74 18 -93z
m7224 -550 l46 -7 0 -41 0 -41 -498 0 c-289 0 -578 -6 -692 -13 -107 -7 -420
-28 -695 -47 -275 -19 -599 -39 -720 -46 -265 -13 -801 -16 -1017 -5 -140 7
-158 10 -158 26 0 15 17 18 153 24 83 4 415 11 737 16 322 5 619 14 660 20
100 13 213 38 275 60 109 40 400 51 630 25 175 -20 291 -19 556 5 123 11 251
21 284 23 120 6 393 7 439 1z m-7300 -1357 c67 -101 117 -207 142 -302 21 -82
24 -278 10 -636 l-9 -227 -89 -7 c-50 -3 -91 -5 -93 -3 -2 2 -8 226 -14 498
-6 272 -13 557 -17 634 -3 85 -2 136 4 132 5 -3 35 -43 66 -89z m7290 -378 c6
-31 8 -79 4 -79 -2 -1 -358 -5 -793 -10 -870 -10 -1193 -20 -1665 -51 -198
-13 -504 -24 -825 -29 -280 -4 -520 -11 -532 -15 -50 -16 -19 8 52 41 86 40
224 78 345 95 132 19 471 15 800 -11 377 -29 546 -25 776 18 315 59 475 68
1295 70 l537 2 6 -31z m-2417 -1025 c18 -5 22 -16 28 -67 8 -75 31 -164 51
-195 14 -21 13 -27 -6 -67 -18 -37 -54 -67 -64 -53 -5 5 -45 258 -52 326 -7
66 -5 69 43 56z m-3619 -498 c121 -32 248 -82 352 -137 112 -61 292 -181 283
-189 -13 -12 -179 -39 -278 -46 -70 -5 -119 -1 -220 16 -148 26 -258 23 -425
-9 -52 -11 -96 -18 -96 -18 -1 1 -29 43 -62 92 -33 50 -101 142 -151 205 -50
63 -91 117 -91 120 0 3 132 2 292 -1 277 -6 299 -7 396 -33z m6838 -21 c19 -8
71 -39 114 -70 43 -30 82 -55 87 -55 4 0 14 -4 21 -9 18 -11 -24 -79 -71 -115
-125 -96 -382 -137 -567 -92 -105 26 -107 28 -65 57 19 14 96 79 171 145 74
65 150 127 167 137 39 21 96 22 143 2z m-7675 -427 c75 -101 134 -217 154
-301 10 -44 15 -122 15 -268 0 -201 1 -209 31 -315 35 -120 40 -195 18 -236
l-14 -27 -70 31 c-39 18 -71 33 -73 34 -2 1 5 39 14 85 13 63 15 110 11 189
-6 100 -17 152 -91 425 -40 150 -83 465 -62 465 3 0 34 -37 67 -82z m1551
-385 c5 -89 25 -170 62 -255 6 -14 -2 -17 -61 -23 -221 -21 -458 -77 -646
-153 -95 -38 -97 -39 -101 -18 -12 66 -49 373 -54 444 l-5 82 50 0 c27 0 103
-7 168 -16 137 -18 258 -14 425 15 58 10 117 19 131 20 l26 1 5 -97z m1669
-100 c-27 -51 -56 -64 -183 -84 -174 -27 -463 -59 -529 -59 -55 0 -56 0 -51
29 l4 28 113 -5 c132 -6 236 7 395 50 95 25 219 53 253 57 4 1 3 -7 -2 -16z
m1294 -152 c19 -11 43 -43 64 -84 31 -62 33 -72 29 -139 -4 -67 -37 -160 -67
-191 -4 -4 -63 35 -132 86 -68 51 -164 121 -212 156 -48 35 -86 66 -83 68 6 6
192 92 236 109 51 19 129 17 165 -5z m-581 -493 c99 -70 372 -273 390 -289 5
-5 7 -11 3 -15 -3 -3 -48 28 -99 71 -73 60 -128 94 -255 156 -89 44 -167 87
-174 95 -9 11 -8 18 6 34 10 11 20 20 23 20 2 0 50 -32 106 -72z m4655 -352
c36 -19 51 -43 88 -141 17 -44 34 -88 38 -97 14 -33 -24 -20 -61 21 -19 22
-55 48 -80 57 -40 15 -53 16 -114 4 -54 -10 -88 -11 -152 -2 -46 6 -144 14
-218 18 -80 4 -138 11 -142 18 -24 36 17 56 115 56 85 1 191 20 302 54 91 28
183 33 224 12z m-5984 -107 c284 -76 342 -90 405 -95 54 -5 75 -13 113 -40 26
-19 47 -38 47 -43 0 -5 -17 -11 -37 -15 -78 -12 -179 -5 -272 19 -106 28 -167
31 -224 10 -35 -12 -42 -11 -70 5 -33 19 -114 44 -178 54 -29 5 -46 19 -87 70
-49 61 -50 65 -29 70 53 11 226 -7 332 -35z m3527 -39 c174 -34 306 -42 554
-35 l231 7 6 -28 c3 -16 4 -30 2 -32 -2 -2 -50 -7 -107 -11 -56 -4 -113 -13
-125 -19 -12 -7 -50 -12 -84 -12 -44 0 -76 -7 -108 -22 -44 -21 -45 -21 -95
-4 -74 26 -430 166 -435 172 -10 10 65 3 161 -16z m5070 -102 c20 -35 52 -94
71 -133 61 -124 342 -834 333 -842 -3 -3 -27 -2 -54 2 l-50 7 -23 61 c-115
317 -195 503 -324 755 l-94 182 32 14 c59 26 70 21 109 -46z m-502 -180 c85
-144 340 -695 340 -734 0 -13 -164 4 -169 17 -8 25 -259 516 -310 608 -29 51
-49 97 -44 102 8 7 131 57 145 58 4 1 21 -23 38 -51z m-11001 26 c17 -4 31
-10 31 -15 0 -4 -30 -25 -67 -45 -38 -21 -87 -51 -111 -67 -24 -16 -44 -27
-46 -25 -1 1 -7 28 -13 58 -6 30 -14 63 -18 72 -5 13 0 17 27 21 57 7 164 7
197 1z m4788 -128 c13 -65 21 -122 16 -127 -4 -4 -40 -9 -80 -10 -52 -3 -76 1
-90 12 -10 8 -37 32 -61 53 -24 20 -63 46 -88 56 -39 17 -43 22 -35 42 7 21
17 24 88 29 61 5 96 14 144 37 35 17 68 29 73 28 5 -1 20 -55 33 -120z m4605
-23 c25 -24 37 -61 23 -75 -7 -7 -136 27 -136 36 0 7 71 65 80 66 3 0 18 -12
33 -27z m-3013 -67 c91 -35 339 -127 551 -204 572 -208 662 -245 671 -270 5
-12 4 -22 0 -22 -5 0 -50 16 -100 35 -51 19 -216 73 -369 121 -337 104 -432
139 -587 215 -127 61 -356 189 -341 189 5 0 84 -29 175 -64z m-2959 -130 c0
-11 -19 -15 -25 -6 -3 5 1 10 9 10 9 0 16 -2 16 -4z m2283 -17 c23 -12 92 -48
153 -81 l112 -60 -30 -48 c-17 -28 -33 -69 -35 -94 -3 -27 -11 -46 -18 -46
-30 0 -132 44 -276 118 l-157 80 83 51 c45 27 90 61 99 75 20 31 17 31 69 5z
m-5371 -253 l27 -19 -68 -66 c-124 -120 -205 -273 -218 -413 -10 -110 -24 -52
-30 127 -5 131 -3 160 16 234 24 97 55 155 106 200 l36 32 52 -38 c29 -20 64
-46 79 -57z m388 -504 c0 -22 -10 -33 -52 -59 l-53 -32 -7 32 c-3 18 -6 33 -5
34 2 1 108 50 115 52 1 1 2 -11 2 -27z m210 -412 c16 -8 17 -15 8 -52 -5 -24
-8 -67 -6 -95 3 -29 2 -53 -2 -53 -4 0 -21 18 -39 41 -33 40 -33 40 -17 80 9
22 16 51 16 64 0 27 11 31 40 15z m-364 -433 c55 -56 148 -164 207 -240 l109
-137 -52 -133 c-28 -72 -54 -140 -58 -149 -6 -14 -27 -2 -131 72 -68 49 -159
113 -203 142 -55 37 -77 57 -72 68 38 99 84 335 84 434 0 25 4 46 9 46 5 0 53
-46 107 -103z m1870 -63 c41 -24 57 -44 34 -44 -9 0 -77 -87 -106 -136 -11
-18 -12 -18 -31 -2 -10 10 -36 24 -57 33 l-38 16 23 27 c38 43 123 132 127
132 2 0 23 -12 48 -26z m-2847 -40 l32 -7 -3 -100 c-3 -111 -18 -136 -37 -62
-7 26 -26 62 -47 85 -34 38 -35 39 -18 64 17 28 24 29 73 20z m2462 -599 l146
-58 12 -53 c29 -129 116 -240 229 -292 80 -36 186 -41 310 -13 152 34 331 51
542 50 107 0 202 -3 210 -7 12 -6 15 -35 16 -167 1 -143 3 -168 26 -237 75
-226 207 -318 566 -397 73 -16 135 -31 138 -34 2 -2 -20 -7 -49 -10 -30 -3
-130 -26 -223 -51 -93 -25 -220 -52 -283 -60 -133 -17 -176 -40 -210 -108 -25
-52 -28 -142 -7 -193 8 -19 43 -64 77 -99 53 -56 76 -71 163 -109 325 -143
542 -150 814 -27 149 67 220 69 476 14 66 -14 164 -28 216 -31 83 -5 99 -9
130 -33 46 -36 104 -65 160 -80 l45 -13 -40 -14 c-64 -23 -291 -79 -400 -100
-88 -16 -146 -18 -495 -15 -519 3 -662 -13 -840 -94 -41 -19 -79 -32 -86 -30
-10 4 -824 610 -2096 1559 l-157 118 59 174 c57 169 141 389 194 507 l25 56
93 -47 c51 -26 159 -74 239 -106z m7445 109 c53 -6 63 -10 78 -34 9 -16 16
-31 16 -34 0 -3 -57 -6 -127 -6 -201 -1 -527 -26 -630 -49 -87 -20 -180 -32
-354 -46 l-76 -6 -17 42 c-9 23 -16 43 -14 44 14 12 411 78 573 95 91 9 437 5
551 -6z m-8967 -423 c11 -7 10 -14 -5 -40 -32 -54 -66 -22 -50 45 7 25 11 25
55 -5z m4421 -142 c25 -6 50 -15 57 -21 12 -10 19 -78 8 -78 -6 0 -187 90
-194 95 -1 2 0 8 3 14 7 10 51 7 126 -10z m961 5 l77 -6 6 -56 c8 -69 56 -371
62 -392 3 -13 -13 -15 -114 -14 -95 2 -126 6 -164 23 -25 12 -67 24 -92 27
l-46 7 0 214 0 215 98 -6 c53 -4 131 -9 173 -12z m4580 -634 c19 -6 46 -22 60
-36 21 -22 24 -35 24 -95 0 -49 -4 -72 -14 -78 -30 -19 -214 -33 -421 -32
-191 1 -281 -6 -342 -25 -15 -4 -12 11 19 99 l36 104 111 12 c61 7 170 23 241
36 144 25 232 30 286 15z m-5471 -97 c1 -10 7 -72 14 -138 8 -66 13 -121 12
-122 -3 -3 -189 37 -193 41 -2 2 3 20 10 42 8 21 22 71 31 111 l18 72 46 4
c26 2 50 4 55 5 4 1 7 -6 7 -15z m4377 0 c-2 -5 -32 -94 -66 -199 -56 -176
-65 -196 -106 -242 -25 -28 -69 -62 -98 -76 -69 -34 -369 -94 -523 -105 -127
-10 -170 -22 -220 -64 -29 -25 -33 -25 -120 -19 l-89 7 2 40 c1 22 16 83 33
135 31 92 32 98 25 215 -6 112 -5 123 14 147 38 48 247 115 371 119 36 1 166
-1 290 -6 238 -8 320 -1 424 35 58 21 69 23 63 13z m-7388 -338 c144 -107 261
-196 261 -199 0 -2 -29 -39 -65 -82 -81 -97 -173 -161 -208 -143 -48 26 -145
95 -190 137 -59 56 -88 138 -89 257 -1 98 11 225 22 225 4 0 125 -88 269 -195z
m10022 -220 c13 -5 17 -28 22 -113 2 -59 12 -126 20 -149 l15 -43 -114 0 -114
0 6 63 c3 34 9 100 15 147 5 47 9 91 9 99 0 11 13 13 63 8 34 -3 69 -9 78 -12z
m-8881 -631 l250 -185 -49 -72 c-137 -205 -330 -559 -442 -812 -91 -206 -189
-461 -189 -491 0 -16 -11 -35 -27 -50 -42 -36 -305 -215 -310 -210 -2 2 45 87
106 189 129 217 152 262 196 376 74 191 81 345 26 555 -22 84 -31 141 -31 196
0 121 23 162 117 206 134 64 180 262 79 341 -20 16 -26 30 -26 58 0 33 25 84
42 85 4 0 120 -84 258 -186z m10400 -149 c274 -55 606 -90 945 -101 110 -3
722 -30 1360 -60 l1160 -55 190 -98 c551 -285 1509 -865 1475 -894 -3 -2
-1095 -561 -2427 -1241 -2075 -1060 -2452 -1249 -2630 -1320 -114 -46 -334
-139 -488 -207 l-280 -124 -5400 -2 -5400 -3 -55 53 c-30 29 -64 69 -75 87
-11 19 -37 44 -58 56 -21 11 -249 227 -508 479 l-470 458 218 93 c299 129 746
354 936 471 86 54 248 161 359 238 585 406 704 481 978 620 562 284 1092 444
2050 619 2098 384 4952 734 7540 925 151 12 293 22 315 24 98 9 148 5 265 -18z
m7925 -1533 l1830 -1207 3 -251 2 -251 -152 -6 c-303 -13 -760 -26 -1098 -32
l-345 -5 -152 112 c-83 62 -151 114 -149 115 1 2 50 -5 107 -15 77 -13 115
-25 145 -45 119 -80 276 -19 318 124 9 28 27 80 41 115 70 174 -7 352 -189
434 -87 40 -182 57 -411 75 -223 17 -315 36 -555 114 -222 72 -330 99 -445
112 -88 10 -105 9 -145 -6 -25 -9 -52 -17 -60 -18 -8 0 -214 146 -456 326
l-442 327 -5 153 c-5 182 -32 296 -101 442 -66 139 -129 228 -244 343 -56 56
-101 102 -100 102 2 1 165 34 363 74 198 41 371 74 385 75 17 0 606 -383 1855
-1207z m-17717 1095 c28 -15 52 -29 52 -31 0 -2 -20 -41 -44 -87 -46 -86 -121
-271 -150 -369 l-16 -55 -90 -37 c-60 -24 -90 -32 -90 -24 0 25 78 252 119
346 47 108 149 293 159 288 4 -2 31 -16 60 -31z m-5988 -217 c0 -16 -7 -20
-34 -20 -18 0 -58 -13 -88 -29 -46 -25 -75 -31 -178 -41 -133 -13 -143 -11
-138 39 3 20 14 28 68 47 56 19 87 23 218 23 146 1 152 0 152 -19z m575 -272
c66 -291 93 -490 103 -746 6 -141 5 -169 -6 -155 -22 30 -71 199 -87 296 -18
116 -52 727 -39 715 3 -4 16 -53 29 -110z m-442 -340 c12 -324 32 -444 103
-617 44 -105 96 -195 171 -296 32 -43 56 -80 54 -84 -2 -3 -31 -16 -65 -28
-53 -20 -81 -23 -221 -23 l-159 0 -112 113 -112 112 -30 95 c-16 52 -37 131
-46 175 -14 70 -66 481 -66 521 0 8 26 26 63 41 34 15 103 48 154 74 50 27
120 55 155 64 35 9 70 21 78 25 8 5 17 7 21 5 3 -3 9 -82 12 -177z m20842
-758 c13 -304 13 -376 3 -386 -15 -13 -1697 -1021 -1721 -1029 -13 -5 -12 6 4
83 40 195 47 403 19 512 -18 68 -117 140 -193 140 -18 0 -112 -32 -207 -70
-204 -82 -450 -173 -455 -168 -2 1 567 294 1263 650 697 356 1268 646 1269
644 1 -1 9 -170 18 -376z m1053 -1174 c282 -214 512 -392 512 -395 0 -4 -107
-28 -237 -54 -688 -138 -1647 -374 -1966 -483 -161 -55 -333 -144 -407 -211
-64 -59 -120 -134 -120 -163 0 -9 -9 -33 -20 -55 -42 -82 -12 -224 57 -273 16
-12 67 -35 113 -52 101 -36 181 -83 360 -207 134 -94 324 -206 473 -279 42
-21 77 -41 77 -44 -1 -3 -895 -534 -1988 -1181 l-1987 -1176 -3695 82 c-2032
46 -3696 83 -3697 84 -5 2 -3 603 4 949 l6 352 42 0 c39 0 44 -3 72 -48 19
-31 44 -55 69 -68 38 -18 81 -19 1479 -25 3615 -16 3699 -16 3836 3 393 55
658 149 1059 376 235 133 606 356 635 383 17 15 109 68 205 119 400 211 1703
924 2225 1218 971 546 1626 968 2202 1418 87 68 163 123 169 121 6 -1 241
-177 522 -391z m-18258 -1428 c0 -246 -2 -448 -3 -448 -2 0 -29 9 -59 19 -31
10 -81 24 -112 31 l-56 11 0 87 c0 48 -6 110 -14 137 -34 129 -124 243 -228
290 -93 42 -159 43 -302 6 -127 -33 -176 -38 -176 -18 0 6 -7 257 -15 557 -8
300 -15 587 -15 638 l0 93 490 -478 490 -477 0 -448z m13645 931 c-62 -247
-178 -615 -257 -819 l-33 -85 -220 -133 c-451 -272 -893 -520 -1264 -708 -112
-57 -210 -104 -217 -104 -9 0 -12 9 -9 28 3 15 23 223 45 462 22 239 42 449
45 465 4 27 20 39 152 112 239 132 472 250 1026 517 287 138 574 279 637 313
63 33 116 60 118 58 2 -1 -9 -49 -23 -106z m9215 -86 c0 -54 -23 -146 -80
-320 -28 -83 -50 -158 -50 -166 0 -8 -16 -34 -35 -57 -19 -23 -35 -38 -35 -33
0 33 125 600 134 605 6 4 23 8 39 8 25 0 27 -3 27 -37z m-1392 -125 c-3 -7
-33 -113 -69 -236 -53 -187 -67 -223 -84 -227 -11 -3 -685 -99 -1498 -215
-1274 -182 -1483 -209 -1511 -199 -24 9 -95 9 -286 1 l-254 -10 -241 115
c-132 63 -253 122 -270 131 -29 15 -1 21 800 174 457 87 936 174 1066 193 275
40 449 71 679 120 145 31 251 43 870 99 774 70 804 72 798 54z m762 -58 c36 0
70 -4 77 -8 19 -12 -106 -587 -150 -689 -20 -45 -45 -114 -57 -153 -12 -39
-25 -70 -29 -68 -5 2 -98 41 -209 87 l-200 84 13 46 c8 25 55 188 105 361 50
173 94 324 97 334 5 18 13 19 147 13 77 -4 170 -7 206 -7z m-10904 -597 c-8
-60 -106 -1096 -106 -1117 0 -13 -57 -39 -68 -31 -1 1 9 26 23 56 47 102 29
228 -47 314 -73 82 -157 117 -284 116 -180 -1 -377 -127 -433 -276 -27 -73
-27 -165 -1 -224 l20 -44 -282 7 c-156 4 -425 11 -598 16 -575 17 -2096 23
-3015 11 -647 -7 -901 -7 -906 0 -4 6 -9 31 -13 55 -7 54 -45 130 -83 166 -15
15 -50 37 -78 50 -44 20 -65 23 -180 23 -115 -1 -140 -4 -215 -29 -103 -34
-201 -82 -380 -186 -219 -127 -270 -137 -611 -116 -165 10 -267 0 -389 -40
l-75 -25 -1550 37 c-852 19 -1559 37 -1571 40 -47 8 -47 18 -35 546 6 271 14
539 17 596 l6 102 5430 0 5430 0 -6 -47z m9860 -317 c-12 -41 -24 -77 -27 -81
-4 -3 -71 1 -150 9 -79 8 -202 18 -274 21 -71 3 -168 8 -215 12 l-85 6 355 53
c195 28 369 52 386 53 l32 1 -22 -74z m-1510 -167 c-65 -43 -172 -152 -296
-299 -57 -69 -148 -176 -202 -238 -115 -133 -176 -222 -223 -326 -43 -92 -75
-221 -75 -301 l0 -61 -1671 -958 c-1029 -590 -1675 -954 -1680 -949 -5 5 -54
136 -109 290 -131 373 -179 491 -262 656 -41 81 -67 142 -61 148 5 5 497 298
1095 652 l1086 644 8 -156 c4 -86 7 -247 6 -359 -1 -111 3 -224 9 -250 15 -68
49 -113 110 -147 47 -25 64 -29 129 -29 92 1 155 23 277 101 136 86 725 448
848 521 119 71 209 152 244 219 33 66 77 238 132 513 28 140 55 260 60 265 9
9 531 91 598 94 20 1 16 -4 -23 -30z m1595 -513 c38 -20 115 -67 147 -92 5 -3
-27 -64 -33 -64 -3 0 -33 20 -66 45 -34 25 -100 66 -145 91 -46 25 -84 48 -84
51 0 15 135 -9 181 -31z m-24223 -110 c222 -127 492 -229 829 -315 111 -28
264 -71 340 -96 659 -211 1207 -355 1673 -440 80 -14 165 -33 190 -42 25 -8
97 -19 160 -23 63 -4 178 -16 255 -25 120 -15 150 -15 210 -4 58 11 218 9
1005 -9 514 -13 963 -23 997 -22 l63 0 -10 -26 c-15 -39 -12 -94 10 -186 24
-104 47 -257 60 -413 9 -111 13 -255 8 -255 -2 0 -915 -9 -2030 -20 -1811 -18
-2034 -18 -2098 -5 -39 8 -84 15 -100 15 -25 0 -114 100 -836 943 -444 518
-816 953 -828 966 -27 30 -22 28 102 -43z m23600 -306 c43 -22 99 -58 126 -80
26 -22 52 -40 57 -40 5 0 -12 -28 -39 -62 -80 -103 -105 -144 -210 -346 -56
-106 -118 -216 -139 -245 -21 -29 -114 -131 -208 -227 -93 -97 -188 -199 -210
-228 -43 -58 -61 -63 -100 -29 l-25 22 84 230 c102 279 137 359 222 509 83
147 341 536 355 536 6 0 45 -18 87 -40z m-23141 -935 l779 -910 -34 -865 c-19
-476 -36 -867 -38 -868 -1 -2 -65 43 -141 101 -842 640 -1373 1321 -1498 1922
-32 154 -30 274 14 775 38 428 62 675 77 774 l6 38 28 -28 c15 -16 378 -438
807 -939z m24737 11 c29 -63 41 -108 57 -215 11 -75 30 -181 41 -236 16 -81
19 -120 14 -205 -13 -199 -50 -433 -97 -611 l-21 -76 -37 9 -38 10 24 76 c60
194 93 437 93 686 0 262 -26 419 -100 621 -26 72 -51 157 -54 190 l-7 60 44
-115 c24 -63 60 -151 81 -194z m-454 -82 c62 -190 73 -286 67 -554 -4 -190 -9
-243 -31 -343 -39 -180 -152 -495 -237 -657 -39 -76 -41 -78 -67 -69 -15 5
-63 12 -107 16 l-80 8 0 50 c1 36 16 87 52 180 82 206 94 264 100 460 3 94 0
270 -7 392 -7 122 -13 302 -14 400 -1 151 2 184 17 218 11 23 63 84 125 145
l107 105 17 -113 c10 -63 36 -170 58 -238z m-16615 -151 l47 -6 -5 -346 c-2
-190 -10 -395 -17 -456 -11 -103 -14 -112 -45 -145 -48 -51 -67 -96 -63 -146
3 -36 0 -44 -17 -49 -11 -4 -96 -9 -189 -12 -162 -6 -168 -5 -162 13 3 10 10
104 16 207 11 197 15 238 51 452 16 97 21 170 20 286 -1 172 2 180 65 199 35
10 233 13 299 3z m9614 -291 c76 -151 131 -284 241 -591 48 -135 100 -277 114
-315 14 -38 25 -70 24 -71 -29 -19 -171 -96 -172 -93 -2 2 -17 44 -34 93 -17
50 -65 189 -106 309 -89 255 -134 406 -169 566 -43 194 -42 175 -5 199 18 11
36 21 40 21 3 0 34 -53 67 -118z m-489 -289 c47 -201 117 -426 221 -714 50
-140 92 -262 93 -272 1 -13 -167 -114 -694 -417 -382 -219 -696 -397 -698
-396 -5 6 148 1391 155 1404 7 11 868 528 884 531 3 1 21 -61 39 -136z m6230
-149 l0 -35 -47 3 c-44 3 -48 5 -54 36 l-6 32 53 0 54 0 0 -36z m-17680 -137
c0 -88 -26 -303 -51 -424 l-22 -103 -56 -31 c-88 -50 -158 -108 -266 -221
-161 -168 -282 -357 -345 -538 -15 -42 -50 -117 -78 -167 -28 -49 -63 -115
-77 -146 l-26 -57 -1655 0 -1655 0 6 98 c3 53 19 436 36 851 16 415 31 756 33
758 2 2 23 -1 47 -6 58 -14 205 -14 249 0 29 9 2015 35 3673 48 l187 1 0 -63z
m613 29 c66 -49 119 -61 282 -60 122 1 173 6 270 27 66 14 130 29 142 32 27 9
29 0 38 -142 5 -85 4 -103 -7 -103 -8 0 -91 -11 -184 -25 -120 -18 -241 -28
-419 -34 -175 -6 -264 -13 -298 -24 l-49 -15 6 36 c7 39 26 261 26 299 0 18 7
22 43 26 102 9 118 7 150 -17z m4535 -101 c1097 -24 1997 -46 2000 -50 4 -4 7
-41 7 -83 0 -76 -1 -78 -47 -142 -25 -36 -47 -68 -47 -73 0 -4 -13 -25 -27
-47 -50 -75 -45 -177 13 -240 32 -36 37 -51 58 -162 43 -229 107 -441 208
-685 l55 -133 -1984 0 -1985 0 35 63 c58 104 98 238 104 347 5 110 -10 186
-57 279 -81 160 -322 421 -551 596 -74 57 -150 119 -169 138 l-33 35 12 89 c6
48 14 96 16 106 5 16 20 17 202 11 108 -3 1094 -25 2190 -49z m3947 -86 c550
-12 1001 -23 1003 -24 2 -2 -33 -338 -77 -747 -45 -408 -81 -746 -81 -750 0
-5 -292 -8 -650 -8 -626 0 -650 1 -650 19 0 10 -25 69 -56 132 -151 305 -272
589 -370 867 -83 235 -145 388 -190 469 l-36 63 54 0 c29 0 503 -9 1053 -21z
m-6447 -547 l33 -27 -17 -50 c-22 -65 -25 -68 -68 -60 l-36 7 0 66 c0 50 4 68
18 78 24 19 33 17 70 -14z m5017 -124 c76 -230 202 -554 321 -825 l14 -33 -86
0 -85 0 -59 123 c-80 170 -164 385 -205 528 -41 140 -41 150 -16 173 11 10 32
47 47 82 15 35 28 64 30 64 1 0 19 -51 39 -112z m4856 30 c6 -13 45 -69 86
-126 42 -57 74 -105 72 -107 -7 -5 -293 -95 -305 -95 -6 0 -16 12 -22 28 -23
59 -63 204 -58 210 13 13 192 111 203 112 7 0 18 -10 24 -22z m-11128 -44 c66
-34 191 -158 251 -251 25 -39 46 -77 46 -84 0 -15 -95 -5 -165 18 -41 13 -73
40 -198 163 l-149 148 43 15 c66 23 113 20 172 -9z m-730 -251 c64 -50 232
-199 265 -237 49 -56 45 -91 -32 -245 -73 -146 -139 -256 -257 -433 -81 -120
-449 -639 -517 -728 l-34 -45 7 60 c32 280 140 676 307 1125 44 118 91 249
105 290 13 41 35 97 49 123 13 27 24 57 24 67 0 19 25 50 39 50 5 0 24 -12 44
-27z m11274 -96 c17 -53 19 -73 10 -76 -6 -2 -176 -59 -376 -127 -200 -68
-360 -120 -356 -116 13 13 690 399 694 395 3 -2 15 -36 28 -76z m-3731 -924
c21 -69 56 -144 113 -243 36 -63 88 -162 114 -220 68 -148 179 -439 172 -451
-4 -5 -24 -18 -46 -29 l-39 -20 -240 480 c-132 264 -240 484 -240 490 0 6 33
10 80 10 68 0 81 -3 86 -17z m-5822 -29 c8 -3 25 -36 37 -72 17 -52 33 -78 70
-114 27 -27 55 -48 62 -48 20 0 127 -533 149 -742 15 -149 -2 -598 -24 -611
-64 -38 -172 -96 -174 -94 -1 1 4 29 12 62 24 97 27 250 15 585 -18 498 -30
579 -122 852 -32 97 -59 179 -59 182 0 8 14 8 34 0z m-567 -151 c51 -73 101
-172 143 -287 32 -84 70 -139 113 -163 21 -11 27 -81 48 -528 13 -289 8 -348
-46 -509 -19 -58 -35 -123 -35 -144 0 -40 0 -40 -42 -44 -24 -2 -59 -1 -78 4
-19 4 -75 8 -125 8 -94 0 -159 13 -236 47 l-45 20 10 79 c5 44 10 234 10 424
1 312 -1 360 -22 500 -59 390 -13 533 197 621 36 15 66 28 67 28 1 1 19 -25
41 -56z m-1197 -1803 c11 -11 20 -31 20 -45 0 -22 -3 -24 -18 -16 -23 12 -72
61 -72 72 0 17 50 9 70 -11z"/>
<path d="M29720 19495 c-74 -16 -196 -58 -255 -88 -109 -54 -166 -135 -166
-237 -1 -74 4 -91 50 -164 53 -87 109 -142 156 -154 23 -6 192 -12 390 -14
394 -3 413 -1 494 68 61 53 85 105 85 184 0 122 -68 200 -256 293 -220 108
-367 142 -498 112z"/>
<path d="M23050 19431 c-90 -28 -175 -105 -215 -194 -42 -96 -60 -200 -60
-352 0 -134 1 -142 27 -186 32 -55 94 -112 145 -136 56 -25 228 -21 281 6 71
36 136 155 148 270 3 31 18 97 32 146 62 211 11 355 -152 431 -53 25 -151 31
-206 15z"/>
<path d="M16350 17260 c-58 -11 -102 -27 -221 -83 -203 -95 -296 -174 -325
-275 -35 -121 6 -232 117 -315 35 -26 82 -65 104 -87 22 -21 58 -44 80 -50 28
-8 149 -10 400 -8 305 3 366 6 402 20 64 25 98 55 130 112 24 44 28 62 28 131
0 66 -5 90 -27 137 -38 82 -109 148 -215 201 -55 28 -115 69 -158 107 -105 96
-204 130 -315 110z"/>
<path d="M25105 17190 c-85 -18 -326 -124 -402 -176 -95 -65 -138 -151 -131
-264 6 -101 56 -198 150 -291 85 -85 141 -113 206 -105 26 4 148 10 272 15
362 13 468 54 535 202 70 157 13 321 -154 443 -58 43 -239 143 -290 161 -53
18 -138 25 -186 15z"/>
</g>
</svg>
